<svg xmlns="http://www.w3.org/2000/svg" version="1.1" x="0" y="0" width="190.9" height="132.3" viewBox="0 0 190.9 132.3" enable-background="new 0 0 190.9 132.3" xml:space="preserve"><path fill="#2E2D2D" d="M114.1 79h-6.9l-1.7 5h-3.7l6.9-19.6h3.7l6.9 19.6h-3.7L114.1 79zM110.6 67.8c0 0-0.4 1.9-0.8 3l-1.7 5.2h5.1l-1.7-5.2C111.1 69.7 110.7 67.8 110.6 67.8L110.6 67.8z"/><path fill="#2E2D2D" d="M124.7 64.4h6.3c2.1 0 3.1 0.2 3.9 0.6 2 0.9 3.2 2.8 3.2 5.3 0 2.3-1.2 4.5-3.3 5.4v0.1c0 0 0.3 0.3 0.7 1l4 7.3h-4l-3.9-7.3h-3.4V84h-3.6L124.7 64.4 124.7 64.4zM131.4 73.6c1.9 0 3.1-1.1 3.1-3.1 0-1.9-0.8-3-3.6-3h-2.7v6.1L131.4 73.6 131.4 73.6z"/><path fill="#2E2D2D" d="M145.6 64.4h6.7c6 0 10 3.6 10 9.8 0 6.2-3.9 9.8-10 9.8h-6.7V64.4zM152 80.9c4 0 6.5-2.3 6.5-6.8 0-4.4-2.6-6.7-6.5-6.7h-2.9v13.5H152z"/><path fill="#2E2D2D" d="M168.6 79c0 0 2.1 2.1 4.9 2.1 1.5 0 2.8-0.8 2.8-2.4 0-3.5-9.2-2.9-9.2-8.9 0-3.3 2.8-5.7 6.6-5.7 3.9 0 5.8 2.1 5.8 2.1l-1.5 2.9c0 0-1.9-1.7-4.3-1.7 -1.7 0-2.9 1-2.9 2.3 0 3.5 9.2 2.6 9.2 8.9 0 3.1-2.4 5.7-6.4 5.7 -4.4 0-6.8-2.7-6.8-2.7L168.6 79z"/><path fill="#3C948B" d="M74 64.4L70.7 78c-0.2 1.1-0.3 2.1-0.3 2.1h-0.1c0 0-0.1-0.9-0.4-2.1l-3.5-13.5h-3.1L59.9 78c-0.3 1.1-0.3 2.1-0.4 2.1h-0.1c0 0-0.1-1-0.3-2.1l-2.3-10.1 -1.7 7.4 2.2 8.8h4.1l3-11.6c0.3-1.3 0.5-2.6 0.5-2.6H65c0 0 0.2 1.3 0.5 2.6l3 11.6h4.1l5-19.6L74 64.4 74 64.4z"/><path fill="#3C948B" d="M96 64.4L92.8 78c-0.2 1.1-0.3 2.1-0.3 2.1h-0.1c0 0-0.1-0.9-0.4-2.1l-3.5-13.5h-3.1L82 78c-0.3 1.1-0.3 2.1-0.4 2.1h-0.1c0 0-0.1-1-0.3-2.1l-2.3-10.2 -1.7 7.4 2.2 8.8h4.1l3-11.6c0.3-1.3 0.5-2.6 0.5-2.6h0.1c0 0 0.2 1.3 0.5 2.6l3 11.6h4.1l5-19.6H96L96 64.4z"/><path fill="#2E2D2D" d="M23.2 79h-6.9l-1.7 5H11l6.9-19.6h3.7L28.5 84h-3.7L23.2 79zM19.7 67.8c0 0-0.4 1.9-0.8 3l-1.7 5.2h5.1l-1.7-5.2C20.2 69.8 19.8 67.8 19.7 67.8L19.7 67.8z"/><path fill="#2E2D2D" d="M47.9 78c0.3 1.1 0.3 2.1 0.4 2.1h0.1c0 0 0.1-1 0.3-2.1l3.2-13.5h3.7l-5 19.6h-4.1l-3-11.6c-0.3-1.3-0.5-2.6-0.5-2.6h-0.1c0 0-0.2 1.3-0.5 2.6l-3 11.6h-4.1l-4.9-19.6H34L37.1 78c0.2 1.1 0.3 2.1 0.3 2.1h0.1c0 0 0.1-0.9 0.4-2.1l3.5-13.5h3.1L47.9 78z"/><path fill="#2E2D2D" d="M187.5 64.4c1.9 0 3.4 1.5 3.4 3.4 0 1.9-1.5 3.4-3.4 3.4 -1.8 0-3.3-1.5-3.3-3.4C184.2 65.9 185.7 64.4 187.5 64.4zM187.5 70.8c1.7 0 2.9-1.3 2.9-3 0-1.7-1.3-3-2.9-3 -1.6 0-2.9 1.3-2.9 3C184.6 69.5 185.9 70.8 187.5 70.8zM186.4 65.9h1.3c0.6 0 1.1 0.4 1.1 1.1 0 0.6-0.3 0.9-0.7 1v0c0 0 0 0 0.1 0.2l0.7 1.4h-0.5l-0.8-1.6h-0.8v1.6h-0.4L186.4 65.9 186.4 65.9zM187.6 67.8c0.4 0 0.7-0.3 0.7-0.7 0-0.5-0.3-0.7-0.7-0.7h-0.8v1.5H187.6z"/><path fill="#3C948B" d="M65.4 45.6c0 0 0.6 0.6 1.3 0.6 0.3 0 0.6-0.1 0.6-0.4 0-0.6-2.4-0.6-2.4-2.3 0-1 0.8-1.7 1.9-1.7 1.2 0 1.7 0.6 1.7 0.6l-0.6 1.1c0 0-0.5-0.5-1.2-0.5 -0.3 0-0.6 0.1-0.6 0.4 0 0.7 2.4 0.6 2.4 2.3 0 0.9-0.7 1.7-1.9 1.7 -1.3 0-2-0.8-2-0.8L65.4 45.6zM69.5 41.9h1.3v5.4h-1.3V41.9zM73.1 43h-1.6v-1.1h4.6V43h-1.6v4.3h-1.3V43zM76.8 41.9h3.4V43h-2.1v1h1.7v1.1h-1.7v1h2.2v1.1h-3.5V41.9zM85.4 41.8c1.6 0 2.8 1.2 2.8 2.8 0 1.6-1.2 2.8-2.8 2.8 -1.6 0-2.8-1.2-2.8-2.8C82.6 43 83.8 41.8 85.4 41.8zM85.4 46.2c0.8 0 1.5-0.7 1.5-1.6 0-0.9-0.7-1.6-1.5-1.6 -0.8 0-1.5 0.7-1.5 1.6C84 45.5 84.6 46.2 85.4 46.2zM89.2 41.9h3.3V43h-2v1.1h1.7v1.1h-1.7v2h-1.3V41.9zM96.1 43h-1.6v-1.1h4.6V43h-1.6v4.3h-1.3V43zM99.8 41.9h1.3v2.2h2v-2.2h1.3v5.4h-1.3v-2.1h-2v2.1h-1.3V41.9zM105.7 41.9h3.4V43H107v1h1.7v1.1H107v1h2.2v1.1h-3.5V41.9zM111.9 41.9h1.9c1.7 0 2.8 1 2.8 2.7 0 1.7-1.1 2.7-2.8 2.7h-1.9V41.9zM113.8 46.2c0.9 0 1.5-0.5 1.5-1.6 0-1-0.6-1.6-1.5-1.6h-0.5v3.2H113.8zM120.2 46.2h-1.7l-0.3 1.1h-1.4l1.8-5.4h1.4l1.8 5.4h-1.4L120.2 46.2zM119.4 43.1c0 0-0.1 0.6-0.2 0.9l-0.3 1.1h1.1l-0.3-1.1C119.5 43.7 119.4 43.1 119.4 43.1L119.4 43.1zM123.3 45.1l-1.8-3.2h1.5l0.6 1.3c0.2 0.4 0.3 0.8 0.3 0.8h0c0 0 0.2-0.4 0.3-0.8l0.6-1.3h1.5l-1.8 3.2v2.2h-1.3V45.1z"/><path fill="#DDE7E8" d="M82.5 0c-5.1-0.3-10.8 4.4-11.6 9.2C75.4 8.9 81.3 5.5 82.5 0zM79 15.6c-4.3-3.3-13.3-3.2-18 0.5C64.9 18.9 74.5 18.6 79 15.6zM52.5 25c4.3 2.1 13.7 0 17.6-3.8C65.2 18.8 56.4 20.6 52.5 25zM58 28.8c-6-0.7-13.1 4.1-15.6 8.8C47.7 38.5 55.6 34.1 58 28.8zM42.8 19.5c-3.7 4.6-3.9 13.6-0.7 17.9C45.1 33 45.5 23.4 42.8 19.5zM54.3 7.8c-3.8 4.1-4.7 12.7-2 17.1C55.5 20.9 56.6 11.8 54.3 7.8zM68.8 0.1c-5.2 2.5-9.1 10.5-8 15.7C65.3 13.1 69.7 4.7 68.8 0.1zM51.8 39.3c-6.2 0.8-12.2 8.5-13.2 14.2C44.4 52.6 51.1 45.6 51.8 39.3zM38.3 53.4c1.7-5.4-1-15.1-5-18.2C31 40.9 33.6 50 38.3 53.4zM47.2 52.1c-3.1 1.8-5.5 5.2-7 8.2h6.2C47.3 57.3 47.7 54.7 47.2 52.1zM51.5 102.1c2.3-3.3 2.8-8.8 1.8-13.8h-5.5C47.4 93.3 48.9 98.7 51.5 102.1zM56.1 95.5c-1 7.1 2.6 14.7 7.3 18C65.2 107.9 61.6 98.8 56.1 95.5zM78.7 112.1c1.3 6.4 8.6 12.2 14.4 13.3C92.2 119.5 85 112.8 78.7 112.1zM76.8 121.5c0.7-5.3-3.9-12.9-9.3-15C67.4 113.1 72 119.2 76.8 121.5zM28.8 53.1c-0.4 2.2-0.1 4.3 0.7 7.3h5.6C33.5 57.3 31.1 54.2 28.8 53.1zM63.2 113.7c-4.5-4.1-15.1-5.9-19.9-3.4C47.8 115.1 57.9 116.7 63.2 113.7zM73.7 131.6c6.2 2.2 15.9-0.9 19.2-6C87.1 124 76.8 127.2 73.7 131.6zM51.1 102.2C47.8 96.5 37.4 91 31.6 92 34.7 98.5 44.6 103.5 51.1 102.2zM56.9 123.3c5.5 3.5 15.4 2.6 19.8-1.5C71.5 119 60.9 119.8 56.9 123.3zM120.3 9.2c-0.8-4.8-6.5-9.4-11.6-9.2C109.9 5.5 115.8 8.9 120.3 9.2zM130.1 16c-4.6-3.6-13.6-3.8-18-0.5C116.6 18.6 126.3 18.9 130.1 16zM138.7 25c-3.9-4.4-12.7-6.2-17.6-3.8C124.9 25 134.3 27.1 138.7 25zM133.2 28.8c2.4 5.4 10.3 9.7 15.6 8.8C146.3 32.8 139.2 28.1 133.2 28.8zM148.4 19.5c-2.8 3.9-2.4 13.5 0.7 17.9C152.3 33.1 152.1 24.1 148.4 19.5zM136.9 7.8c-2.4 3.9-1.3 13.1 2 17.1C141.7 20.5 140.8 11.9 136.9 7.8zM130.4 15.8c1.1-5.2-2.9-13.2-8-15.7C121.5 4.7 125.8 13.1 130.4 15.8zM139.4 39.3c0.7 6.3 7.4 13.4 13.2 14.2C151.6 47.7 145.6 40.1 139.4 39.3zM157.9 35.2c-4 3-6.7 12.8-5 18.2C157.5 50 160.2 40.9 157.9 35.2zM144 52.1c-0.5 2.5-0.1 5.2 0.8 8.2h6.2C149.4 57.3 147.1 54 144 52.1zM139.7 102.1c2.6-3.4 4.1-8.8 3.7-13.8h-5.5C136.9 93.3 137.4 98.7 139.7 102.1zM135 95.5c-5.4 3.3-9 12.4-7.3 18C132.5 110.2 136 102.7 135 95.5zM112.5 112.1c-6.4 0.7-13.5 7.4-14.4 13.3C103.9 124.4 111.2 118.5 112.5 112.1zM123.7 106.5c-5.4 2.1-10 9.7-9.3 15C119.1 119.2 123.7 113.1 123.7 106.5zM162.4 53.1c-2.3 1.1-4.6 4.3-6.4 7.3h5.6C162.4 57.3 162.8 55.3 162.4 53.1zM128 113.7c5.3 3 15.3 1.4 19.9-3.4C143.1 107.8 132.5 109.7 128 113.7zM98.3 125.6c3.4 5.1 13 8.2 19.2 6C114.4 127.2 104.1 124 98.3 125.6zM140.1 102.2c6.5 1.3 16.4-3.7 19.5-10.2C153.7 91 143.3 96.5 140.1 102.2zM114.5 121.8c4.4 4.1 14.3 4.9 19.8 1.5C130.3 119.8 119.7 119 114.5 121.8z"/><g opacity="0"><path fill="#FFFFFF" d="M6.7 67.8c0 1.9-1.5 3.4-3.3 3.4 -1.9 0-3.4-1.5-3.4-3.4 0-1.9 1.5-3.4 3.4-3.4C5.2 64.4 6.7 65.9 6.7 67.8zM6.3 67.8c0-1.7-1.3-3-2.9-3 -1.7 0-2.9 1.3-2.9 3 0 1.7 1.3 3 2.9 3C5 70.8 6.3 69.5 6.3 67.8zM4.5 65.9l0 3.8H4v-1.6H3.2l-0.8 1.6H2l0.7-1.4C2.8 68.1 2.8 68 2.8 68v0c-0.4-0.1-0.7-0.5-0.7-1 0-0.7 0.5-1.1 1.1-1.1H4.5L4.5 65.9zM4 67.8v-1.5H3.3c-0.4 0-0.7 0.3-0.7 0.7 0 0.5 0.3 0.7 0.7 0.7H4z"/></g></svg>